<?xml version="1.0" encoding="UTF-8"?>
<svg xmlns="http://www.w3.org/2000/svg" xmlns:xlink="http://www.w3.org/1999/xlink" width="854" height="480" viewBox="0 0 854 480">
<defs>
<g>
<g id="glyph-0-0">
<path d="M 0.109375 -0.121094 C 0.367188 -0.148438 0.53125 -0.195312 0.597656 -0.265625 C 0.660156 -0.332031 0.695312 -0.511719 0.695312 -0.800781 L 0.695312 -3.6875 C 0.695312 -3.925781 0.65625 -4.082031 0.585938 -4.152344 C 0.511719 -4.226562 0.351562 -4.269531 0.109375 -4.289062 L 0.109375 -4.410156 L 1.960938 -4.410156 L 1.960938 -4.289062 C 1.714844 -4.269531 1.554688 -4.226562 1.480469 -4.152344 C 1.40625 -4.082031 1.371094 -3.925781 1.371094 -3.6875 L 1.371094 -2.390625 L 3.390625 -2.390625 L 3.390625 -3.6875 C 3.390625 -3.925781 3.355469 -4.082031 3.285156 -4.152344 C 3.214844 -4.226562 3.054688 -4.269531 2.804688 -4.289062 L 2.804688 -4.410156 L 4.660156 -4.410156 L 4.660156 -4.289062 C 4.414062 -4.269531 4.253906 -4.226562 4.179688 -4.152344 C 4.109375 -4.082031 4.074219 -3.925781 4.074219 -3.6875 L 4.074219 -0.722656 C 4.074219 -0.480469 4.109375 -0.324219 4.179688 -0.253906 C 4.253906 -0.1875 4.414062 -0.140625 4.660156 -0.121094 L 4.660156 0 L 2.804688 0 L 2.804688 -0.121094 C 3.066406 -0.148438 3.230469 -0.195312 3.296875 -0.265625 C 3.359375 -0.332031 3.390625 -0.511719 3.390625 -0.800781 L 3.390625 -2.097656 L 1.371094 -2.097656 L 1.371094 -0.722656 C 1.371094 -0.480469 1.40625 -0.324219 1.480469 -0.253906 C 1.554688 -0.183594 1.714844 -0.140625 1.960938 -0.121094 L 1.960938 0 L 0.109375 0 Z "/>
</g>
<g id="glyph-0-1">
<path d="M 0.128906 -4.410156 L 3.898438 -4.410156 L 3.933594 -3.277344 L 3.773438 -3.277344 C 3.695312 -3.632812 3.59375 -3.867188 3.476562 -3.972656 C 3.355469 -4.082031 3.101562 -4.132812 2.714844 -4.132812 L 2.34375 -4.132812 L 2.34375 -0.722656 C 2.34375 -0.464844 2.382812 -0.304688 2.464844 -0.242188 C 2.542969 -0.179688 2.71875 -0.140625 2.992188 -0.121094 L 2.992188 0 L 1.046875 0 L 1.046875 -0.121094 C 1.328125 -0.140625 1.507812 -0.1875 1.574219 -0.261719 C 1.644531 -0.332031 1.679688 -0.511719 1.679688 -0.800781 L 1.679688 -4.132812 L 1.308594 -4.132812 C 0.941406 -4.132812 0.6875 -4.082031 0.554688 -3.976562 C 0.421875 -3.867188 0.320312 -3.636719 0.253906 -3.277344 L 0.0898438 -3.277344 Z "/>
</g>
<g id="glyph-0-2">
<path d="M 0.0742188 -0.121094 C 0.351562 -0.148438 0.527344 -0.210938 0.605469 -0.308594 C 0.683594 -0.40625 0.722656 -0.628906 0.722656 -0.980469 L 0.722656 -3.6875 C 0.722656 -3.929688 0.683594 -4.085938 0.609375 -4.160156 C 0.53125 -4.230469 0.359375 -4.273438 0.0898438 -4.289062 L 0.0898438 -4.410156 L 1.410156 -4.410156 L 2.953125 -1.046875 L 4.425781 -4.410156 L 5.753906 -4.410156 L 5.753906 -4.289062 C 5.507812 -4.269531 5.347656 -4.226562 5.277344 -4.152344 C 5.207031 -4.078125 5.167969 -3.925781 5.167969 -3.6875 L 5.167969 -0.722656 C 5.167969 -0.480469 5.207031 -0.324219 5.277344 -0.253906 C 5.347656 -0.1875 5.507812 -0.140625 5.753906 -0.121094 L 5.753906 0 L 3.886719 0 L 3.886719 -0.121094 C 4.15625 -0.140625 4.324219 -0.191406 4.390625 -0.265625 C 4.457031 -0.339844 4.488281 -0.519531 4.488281 -0.800781 L 4.488281 -3.796875 L 2.785156 0 L 2.691406 0 L 1.015625 -3.640625 L 1.015625 -0.980469 C 1.015625 -0.617188 1.070312 -0.378906 1.175781 -0.265625 C 1.246094 -0.195312 1.398438 -0.148438 1.640625 -0.121094 L 1.640625 0 L 0.0742188 0 Z "/>
</g>
<g id="glyph-0-3">
<path d="M 0.0742188 -0.121094 C 0.320312 -0.148438 0.480469 -0.191406 0.550781 -0.253906 C 0.625 -0.316406 0.660156 -0.472656 0.660156 -0.722656 L 0.660156 -3.6875 C 0.660156 -3.925781 0.625 -4.078125 0.554688 -4.152344 C 0.480469 -4.226562 0.324219 -4.269531 0.0742188 -4.289062 L 0.0742188 -4.410156 L 1.960938 -4.410156 L 1.960938 -4.289062 C 1.714844 -4.273438 1.550781 -4.234375 1.464844 -4.167969 C 1.382812 -4.101562 1.339844 -3.957031 1.339844 -3.734375 L 1.339844 -0.53125 C 1.339844 -0.457031 1.355469 -0.398438 1.378906 -0.355469 C 1.402344 -0.3125 1.457031 -0.289062 1.542969 -0.277344 C 1.59375 -0.269531 1.644531 -0.265625 1.699219 -0.265625 C 1.753906 -0.261719 1.859375 -0.261719 2.011719 -0.261719 C 2.605469 -0.261719 3.003906 -0.308594 3.214844 -0.40625 C 3.421875 -0.503906 3.625 -0.753906 3.820312 -1.15625 L 3.988281 -1.15625 L 3.664062 0 L 0.0742188 0 Z "/>
</g>
</g>
</defs>
<g fill="rgb(100%, 100%, 100%)" fill-opacity="1">
<use xlink:href="#glyph-0-0" x="30" y="25"/>
<use xlink:href="#glyph-0-1" x="35" y="25"/>
<use xlink:href="#glyph-0-2" x="39" y="25"/>
<use xlink:href="#glyph-0-3" x="45" y="25"/>
</g>
</svg>
